<?xml version="1.0" encoding="UTF-8" standalone="no"?>
<!-- Created with Inkscape (http://www.inkscape.org/) -->

<svg
   xmlns:dc="http://purl.org/dc/elements/1.1/"
   xmlns:cc="http://creativecommons.org/ns#"
   xmlns:rdf="http://www.w3.org/1999/02/22-rdf-syntax-ns#"
   xmlns:svg="http://www.w3.org/2000/svg"
   xmlns="http://www.w3.org/2000/svg"
   xmlns:sodipodi="http://sodipodi.sourceforge.net/DTD/sodipodi-0.dtd"
   xmlns:inkscape="http://www.inkscape.org/namespaces/inkscape"
   width="500"
   height="500"
   id="svg3134"
   version="1.1"
   inkscape:version="0.91 r13725"
   sodipodi:docname="freesims-logo-transparent-v1.svg"
   inkscape:export-filename="/home/tomascw/Projects/freesims-graphics/src/freesims-logo-transparent-v1.png"
   inkscape:export-xdpi="341.33301"
   inkscape:export-ydpi="341.33301">
  <defs
     id="defs3136" />
  <sodipodi:namedview
     id="base"
     pagecolor="#ffffff"
     bordercolor="#666666"
     borderopacity="1.0"
     inkscape:pageopacity="0"
     inkscape:pageshadow="2"
     inkscape:zoom="0.5"
     inkscape:cx="-411"
     inkscape:cy="250"
     inkscape:document-units="px"
     inkscape:current-layer="layer1"
     showgrid="false"
     borderlayer="true"
     inkscape:window-width="1366"
     inkscape:window-height="673"
     inkscape:window-x="0"
     inkscape:window-y="25"
     inkscape:window-maximized="1" />
  <metadata
     id="metadata3139">
    <rdf:RDF>
      <cc:Work
         rdf:about="">
        <dc:format>image/svg+xml</dc:format>
        <dc:type
           rdf:resource="http://purl.org/dc/dcmitype/StillImage" />
        <dc:title></dc:title>
      </cc:Work>
    </rdf:RDF>
  </metadata>
  <g
     inkscape:label="Layer 1"
     inkscape:groupmode="layer"
     id="layer1"
     transform="translate(0,-552.36218)">
    <path
       style="fill:#00378b;fill-rule:nonzero;fill-opacity:0.74509805"
       inkscape:connector-curvature="0"
       id="path18"
       d="m 94.682584,733.46505 -27.728142,0.78821 -0.523331,-24.33459 -1.852502,0.0573 -0.100137,-5.89706 31.535816,-0.88279 0.100137,5.95911 -1.95531,0.17914 0.523319,24.13996 z" />
    <path
       style="fill:#00378b;fill-rule:nonzero;fill-opacity:0.74509805"
       inkscape:connector-curvature="0"
       id="path20"
       d="m 67.687949,767.55961 -0.629134,-27.4156 27.765612,-0.80397 0.17873,8.6873 -26.924713,19.53241 -0.384631,0 z" />
    <path
       style="fill:#00378b;fill-rule:nonzero;fill-opacity:0.74509805"
       inkscape:connector-curvature="0"
       id="path22"
       d="m 112.0748,665.32552 c -4.6094,-0.43711 -8.55562,2.76515 -8.8356,7.11533 l 0,0.48009 c -2.68839,-2.10007 -6.286312,-3.63133 -10.337917,-3.96395 -8.800701,-0.78677 -16.239333,3.83282 -16.693737,10.3772 -0.142986,1.8037 0.350305,3.56354 1.222512,5.21534 -3.841133,0.36688 -6.950473,3.30014 -7.229153,7.14171 -0.278817,4.33167 3.17669,8.17095 7.75277,8.59328 4.57608,0.4371 8.521598,-2.77419 8.870759,-7.12307 0,-0.54457 0,-1.03184 -0.100137,-1.57469 1.431705,0.46433 2.934188,0.8398 4.539902,0.98884 8.766961,0.77101 16.205591,-3.8688 16.693161,-10.3957 0.0286,-0.68216 -0.0286,-1.35571 -0.14297,-2.0125 0.94369,0.46432 1.99048,0.78821 3.10805,0.88279 4.57551,0.42993 8.59167,-2.7752 8.87005,-7.14056 0.31457,-4.33169 -3.17711,-8.18299 -7.71703,-8.5844 z" />
    <path
       style="fill:#00378b;fill-rule:nonzero;fill-opacity:0.74509805"
       inkscape:connector-curvature="0"
       id="path36"
       d="m 393.59144,823.77305 32.40889,3.18649 2.23471,-27.03081 2.2011,0.17913 0.48758,-6.52905 -36.84357,-3.61414 -0.489,6.5828 2.2706,0.38265 -2.2706,26.84694 z" />
    <path
       style="fill:#00378b;fill-rule:nonzero;fill-opacity:0.74509805"
       inkscape:connector-curvature="0"
       id="path38"
       d="m 425.44211,833.47899 -32.37457,-3.18433 -0.83646,9.67598 30.20821,23.9683 3.00396,-30.45995 z" />
    <path
       style="fill:#00378b;fill-rule:nonzero;fill-opacity:0.74509805"
       inkscape:connector-curvature="0"
       id="path40"
       d="m 463.15931,740.80897 c -6.07713,-0.93724 -11.59506,2.73679 -12.36274,8.22456 -0.0286,0.23788 0,0.45715 -0.0286,0.65492 -3.38645,-2.96652 -8.10166,-5.22423 -13.51648,-6.08178 -11.66326,-1.82004 -22.03607,3.33496 -23.11804,11.63073 -0.31456,2.31016 0.17873,4.59408 1.25684,6.77296 -5.16989,0.10032 -9.5701,3.50781 -10.19767,8.35698 -0.76925,5.48777 3.56218,10.7448 9.67392,11.70727 6.11145,0.94728 11.62937,-2.70153 12.36273,-8.21667 0.0714,-0.66495 0.10013,-1.32848 0.0286,-1.97653 1.8844,0.68216 3.84058,1.31128 5.97033,1.64262 11.6651,1.8474 22.03735,-3.34055 23.15535,-11.62846 0.10014,-0.85699 0.0714,-1.6965 -0.0286,-2.58157 1.25684,0.70938 2.65379,1.21384 4.12152,1.44384 6.07571,0.95302 11.66269,-2.70396 12.3962,-8.2171 0.73351,-5.52145 -3.59549,-10.7554 -9.70765,-11.73449 z" />
    <path
       style="fill:#00378b;fill-rule:nonzero;fill-opacity:0.74509805"
       inkscape:connector-curvature="0"
       id="path42"
       d="m 314.31549,876.28722 32.82855,2.34528 1.85094,-28.61597 -32.68771,-2.34397 -1.99178,28.61466 z" />
    <path
       style="fill:#00378b;fill-rule:nonzero;fill-opacity:0.74509805"
       inkscape:connector-curvature="0"
       id="path44"
       d="m 307.15783,875.95461 2.0238,-28.56094 -31.67381,-2.33008 -0.14298,2.04662 -1.67478,26.60418 31.46705,2.24022 z" />
    <path
       style="fill:#00378b;fill-rule:nonzero;fill-opacity:0.74509805"
       inkscape:connector-curvature="0"
       id="path46"
       d="m 306.9465,883.96161 -31.53526,-2.28293 -1.8159,28.21127 31.39656,2.31016 1.9546,-28.2385 z" />
    <path
       style="fill:#00378b;fill-rule:nonzero;fill-opacity:0.74509805"
       inkscape:connector-curvature="0"
       id="path48"
       d="m 314.07141,884.24164 -1.91956,28.23734 32.89675,2.39887 1.81605,-28.29968 -32.79324,-2.33653 z" />
    <path
       style="fill:#00378b;fill-rule:nonzero;fill-opacity:0.74509805"
       inkscape:connector-curvature="0"
       id="path56"
       d="m 419.57503,876.38124 0.94226,-3.49032 -34.29584,-28.42121 0.83788,-3.46523 -34.8535,-28.88725 0.83789,-3.36807 -37.82271,-31.39618 -33.8749,21.12316 -25.42481,-19.4364 0.62913,-3.1832 -28.91677,-21.86235 0.66344,-3.14823 -30.41883,-23.07561 0.66345,-3.07257 -33.0729,-25.10474 -33.80457,25.64745 0.55908,3.07129 -31.15219,23.60957 0.55763,3.19395 -30.697924,23.22437 0.629121,3.17747 -26.227372,20.5565 2.688542,21.752 117.028163,-100.35187 102.22111,87.59343 -29.05675,18.09745 0.59339,3.57028 -35.3774,21.90406 0.55764,3.60208 -31.50021,19.73507 2.68896,24.43203 138.96015,-98.41919 130.15944,121.4498 4.64429,-23.98434 -29.37019,-25.0732 z" />
    <path
       style="fill:#00378b;fill-rule:nonzero;fill-opacity:0.74509805"
       inkscape:connector-curvature="0"
       id="path58"
       d="m 161.45595,786.26871 -28.00796,0.008 -0.0714,-25.72039 27.90487,-0.0573 0.17873,25.7631 z" />
    <path
       style="fill:#00378b;fill-rule:nonzero;fill-opacity:0.74509805"
       inkscape:connector-curvature="0"
       id="path60"
       d="m 167.56797,786.47006 -0.17873,-25.74446 27.03181,-0.0573 0,1.87363 0.0286,23.89835 -26.89054,0.043 z" />
    <path
       style="fill:#00378b;fill-rule:nonzero;fill-opacity:0.74509805"
       inkscape:connector-curvature="0"
       id="path62"
       d="m 167.39239,793.60189 26.927,-0.0287 0.0286,25.37932 -26.78673,0.0287 -0.17873,-25.38577 z" />
    <path
       style="fill:#00378b;fill-rule:nonzero;fill-opacity:0.74509805"
       inkscape:connector-curvature="0"
       id="path64"
       d="m 161.28294,793.37315 0.20876,25.412 -28.18298,0.0573 -0.0714,-25.43706 28.04456,-0.043 z" />
  </g>
</svg>
