<?xml version="1.0" encoding="UTF-8" standalone="no"?>
<!-- Created with Inkscape (http://www.inkscape.org/) -->

<svg
   xmlns:dc="http://purl.org/dc/elements/1.1/"
   xmlns:cc="http://creativecommons.org/ns#"
   xmlns:rdf="http://www.w3.org/1999/02/22-rdf-syntax-ns#"
   xmlns:svg="http://www.w3.org/2000/svg"
   xmlns="http://www.w3.org/2000/svg"
   xmlns:sodipodi="http://sodipodi.sourceforge.net/DTD/sodipodi-0.dtd"
   xmlns:inkscape="http://www.inkscape.org/namespaces/inkscape"
   width="250mm"
   height="40mm"
   viewBox="0 0 885.82677 141.73228"
   id="svg4441"
   version="1.1"
   inkscape:version="0.91 r13725"
   sodipodi:docname="My Simulation Logo.svg"
   inkscape:export-filename="My Simulation Logo.png"
   inkscape:export-xdpi="50.799999"
   inkscape:export-ydpi="50.799999">
  <defs
     id="defs4443" />
  <sodipodi:namedview
     id="base"
     pagecolor="#ffffff"
     bordercolor="#666666"
     borderopacity="1.0"
     inkscape:pageopacity="0.0"
     inkscape:pageshadow="2"
     inkscape:zoom="0.7"
     inkscape:cx="283.00608"
     inkscape:cy="70.118152"
     inkscape:document-units="px"
     inkscape:current-layer="layer1"
     showgrid="false"
     inkscape:window-width="1366"
     inkscape:window-height="705"
     inkscape:window-x="-8"
     inkscape:window-y="-8"
     inkscape:window-maximized="1" />
  <metadata
     id="metadata7">
    <rdf:RDF>
      <cc:Work
         rdf:about="">
        <dc:format>image/svg+xml</dc:format>
        <dc:type
           rdf:resource="http://purl.org/dc/dcmitype/StillImage" />
        <dc:title></dc:title>
        <cc:license
           rdf:resource="http://creativecommons.org/publicdomain/zero/1.0/" />
      </cc:Work>
      <cc:License
         rdf:about="http://creativecommons.org/publicdomain/zero/1.0/">
        <cc:permits
           rdf:resource="http://creativecommons.org/ns#Reproduction" />
        <cc:permits
           rdf:resource="http://creativecommons.org/ns#Distribution" />
        <cc:permits
           rdf:resource="http://creativecommons.org/ns#DerivativeWorks" />
      </cc:License>
    </rdf:RDF>
  </metadata>
  <g
     inkscape:label="Layer 1"
     inkscape:groupmode="layer"
     id="layer1"
     transform="translate(0,-910.62992)">
    <g
       transform="matrix(6.0112642,0,0,5.6127026,70.565365,542.55248)"
       style="font-style:normal;font-weight:normal;font-size:32.3925209px;line-height:125%;font-family:sans-serif;letter-spacing:0px;word-spacing:0px;display:inline;fill:#378bbe;fill-opacity:1;stroke:none;stroke-width:1;stroke-linecap:round;stroke-linejoin:miter;stroke-miterlimit:4;stroke-dasharray:none;stroke-opacity:1"
       id="text4145-2">
      <path
         d="m 36.339424,81.164397 q 0,2.104051 -1.474267,3.449499 -1.459953,1.331134 -3.835956,1.331134 -1.502894,0 -3.0201,-0.615471 -1.631713,-0.65841 -2.36169,-1.388387 l 2.27581,-2.733835 q 0.429398,0.429398 0.729977,0.629784 0.944676,0.644097 1.917978,0.644097 0.186073,0 0.286266,-0.01431 0.801543,-0.07157 1.130748,-0.257639 0.529591,-0.300578 0.529591,-1.001929 0,-0.801543 -2.061111,-1.374074 -1.288194,-0.357831 -1.674653,-0.57253 -1.073495,-0.601158 -1.631712,-1.302508 -0.901736,-1.130748 -0.901736,-2.848341 0,-1.932291 1.44564,-3.263425 1.459953,-1.345448 3.435185,-1.345448 1.717592,0 3.148919,0.601158 1.431327,0.586844 1.889352,1.288194 l -2.146991,2.619328 q -0.100193,-0.372145 -0.916049,-0.801543 -0.715664,-0.372145 -1.560146,-0.372145 -0.572531,0 -1.016243,0.229013 -0.443711,0.229012 -0.443711,0.629783 0,0.973303 1.331134,1.445641 0.944676,0.300578 1.388387,0.429398 1.917978,0.601157 2.762461,1.774845 0.772917,1.087809 0.772917,2.819714 z"
         style="font-style:normal;font-variant:normal;font-weight:100;font-stretch:normal;font-size:18.22079277px;font-family:Kabel;-inkscape-font-specification:'Kabel Thin';text-align:center;text-anchor:middle;fill:#378bbe;fill-opacity:1;stroke:none;stroke-width:1;stroke-linecap:round;stroke-miterlimit:4;stroke-dasharray:none;stroke-opacity:1"
         id="path5072"
         inkscape:connector-curvature="0" />
      <path
         d="m 43.154441,85.501318 -3.449498,0.243326 0,-11.006905 3.449498,-0.400771 z"
         style="font-style:normal;font-variant:normal;font-weight:100;font-stretch:normal;font-size:18.22079277px;font-family:Kabel;-inkscape-font-specification:'Kabel Thin';text-align:center;text-anchor:middle;fill:#378bbe;fill-opacity:1;stroke:none;stroke-width:1;stroke-linecap:round;stroke-miterlimit:4;stroke-dasharray:none;stroke-opacity:1"
         id="path5074"
         inkscape:connector-curvature="0"
         sodipodi:nodetypes="ccccc" />
      <path
         d="m 60.782491,85.544258 -3.320678,0.214699 0,-6.684297 q 0,-0.729977 -0.12882,-1.102122 -0.229012,-0.65841 -0.901736,-0.65841 -0.114506,0 -0.186072,0.01431 -0.729977,0.07157 -1.001929,0.729977 -0.17176,0.429398 -0.17176,1.245254 0,0.314892 0,0.443712 l 0,5.796874 -3.377931,0.229012 0,-6.598417 q 0,-1.044869 -0.286266,-1.502893 -0.229012,-0.357832 -0.672723,-0.357832 -0.07157,0 -0.243326,0.02863 -0.729977,0.143133 -0.930363,0.601158 -0.200385,0.443711 -0.200385,1.646026 l 0,5.95432 -3.463812,0.229012 0,-11.092784 3.249113,-0.357832 0,1.073496 q 0.372145,-0.558218 0.787229,-0.78723 0.644098,-0.357832 1.502894,-0.357832 0.916049,0 1.617399,0.400772 0.78723,0.458024 0.987616,0.958989 0.615471,-0.715664 1.288194,-1.030556 0.687037,-0.329205 1.66034,-0.329205 1.674652,0 2.733834,0.973302 1.059182,0.973303 1.059182,2.576389 l 0,7.743479 z"
         style="font-style:normal;font-variant:normal;font-weight:100;font-stretch:normal;font-size:18.22079277px;font-family:Kabel;-inkscape-font-specification:'Kabel Thin';text-align:center;text-anchor:middle;fill:#378bbe;fill-opacity:1;stroke:none;stroke-width:1;stroke-linecap:round;stroke-miterlimit:4;stroke-dasharray:none;stroke-opacity:1"
         id="path5076"
         inkscape:connector-curvature="0" />
      <path
         d="m 72.027017,85.544258 -3.220486,0.386458 0,-1.202314 q -0.286266,0.329205 -0.572531,0.65841 -0.801543,0.644097 -2.046798,0.644097 -1.545833,0 -2.590701,-1.030555 -1.044869,-1.030556 -1.044869,-2.576389 l 0,-7.800732 3.420871,-0.300579 0,6.584105 q 0,0.887422 0.08588,1.230941 0.229012,0.901736 0.958989,0.901736 0.200386,0 0.386458,-0.05725 0.801544,-0.214699 1.044869,-0.987616 0.143133,-0.458024 0.143133,-1.703279 l 0,-5.682368 3.435185,-0.286266 0,11.221604 z"
         style="font-style:normal;font-variant:normal;font-weight:100;font-stretch:normal;font-size:18.22079277px;font-family:Kabel;-inkscape-font-specification:'Kabel Thin';text-align:center;text-anchor:middle;fill:#378bbe;fill-opacity:1;stroke:none;stroke-width:1;stroke-linecap:round;stroke-miterlimit:4;stroke-dasharray:none;stroke-opacity:1"
         id="path5078"
         inkscape:connector-curvature="0" />
      <path
         d="m 78.133808,85.544258 -3.463811,0.329205 0,-14.957367 3.463811,-0.372145 0,15.000307 z"
         style="font-style:normal;font-variant:normal;font-weight:100;font-stretch:normal;font-size:18.22079277px;font-family:Kabel;-inkscape-font-specification:'Kabel Thin';text-align:center;text-anchor:middle;fill:#378bbe;fill-opacity:1;stroke:none;stroke-width:1;stroke-linecap:round;stroke-miterlimit:4;stroke-dasharray:none;stroke-opacity:1"
         id="path5080"
         inkscape:connector-curvature="0" />
      <path
         d="m 90.513194,85.544258 -3.120292,0.329205 0,-0.916049 q -0.400772,0.357832 -0.687037,0.529591 -0.901736,0.543904 -1.903665,0.543904 -1.746219,0 -2.905594,-1.016242 -1.216628,-1.073495 -1.216628,-2.834027 0,-1.631713 1.216628,-2.690895 1.230941,-1.073495 3.0201,-1.073495 0.987615,0 1.760532,0.429398 0.257639,0.143132 0.586844,0.443711 0,-0.229012 -0.01431,-0.500964 0,-0.271952 -0.08588,-0.558218 -0.171759,-0.586844 -0.61547,-0.858796 -0.515278,-0.314892 -1.53152,-0.314892 -0.572531,0 -1.445641,0.271952 -1.188001,0.372145 -1.574459,0.629784 l 0.644097,-3.091666 q 0.343518,-0.143133 1.746219,-0.372145 1.030555,-0.17176 1.646026,-0.17176 1.917978,0 3.105979,0.83017 1.374074,0.958989 1.374074,2.819714 l 0,7.57172 z M 87.235456,82.18064 q 0,-0.644097 -0.486652,-1.059182 -0.486651,-0.415085 -1.216628,-0.415085 -0.629783,0 -1.116435,0.372145 -0.472338,0.372145 -0.472338,0.973302 0,0.658411 0.443712,1.059182 0.458024,0.386459 1.259568,0.386459 0.672723,0 1.087808,-0.300579 0.500965,-0.357832 0.500965,-1.016242 z"
         style="font-style:normal;font-variant:normal;font-weight:100;font-stretch:normal;font-size:18.22079277px;font-family:Kabel;-inkscape-font-specification:'Kabel Thin';text-align:center;text-anchor:middle;fill:#378bbe;fill-opacity:1;stroke:none;stroke-width:1;stroke-linecap:round;stroke-miterlimit:4;stroke-dasharray:none;stroke-opacity:1"
         id="path5082"
         inkscape:connector-curvature="0" />
      <path
         d="m 100.93328,82.509845 -0.987617,3.392245 q -0.114506,0.01431 -0.357832,0.02863 -0.243325,0.01431 -0.400771,0.01431 -0.729977,0 -1.316821,-0.114506 -0.815856,-0.157446 -1.48858,-0.558218 -1.059182,-0.629784 -1.545833,-1.646026 -0.386459,-0.815856 -0.386459,-1.860725 l 0,-3.89321 -1.832098,0 0.873109,-3.077353 1.073496,0 0,-2.10405 3.363618,-1.402701 0,3.506751 2.204248,0 0,3.077353 -2.189935,0 0,3.048727 q 0,0.729977 0.157446,1.044869 0.17176,0.314892 0.615471,0.529591 0.186072,0.08588 0.415085,0.128819 0.229012,0.02863 0.543904,0.02863 0.443709,0 0.815859,-0.04294 0.37214,-0.05725 0.44371,-0.100193 z"
         style="font-style:normal;font-variant:normal;font-weight:100;font-stretch:normal;font-size:18.22079277px;font-family:Kabel;-inkscape-font-specification:'Kabel Thin';text-align:center;text-anchor:middle;fill:#378bbe;fill-opacity:1;stroke:none;stroke-width:1;stroke-linecap:round;stroke-miterlimit:4;stroke-dasharray:none;stroke-opacity:1"
         id="path5084"
         inkscape:connector-curvature="0" />
      <path
         d="m 107.03398,85.501318 -3.4495,0.243326 0,-11.006905 3.4495,-0.400771 z"
         style="font-style:normal;font-variant:normal;font-weight:100;font-stretch:normal;font-size:18.22079277px;font-family:Kabel;-inkscape-font-specification:'Kabel Thin';text-align:center;text-anchor:middle;fill:#378bbe;fill-opacity:1;stroke:none;stroke-width:1;stroke-linecap:round;stroke-miterlimit:4;stroke-dasharray:none;stroke-opacity:1"
         id="path5086"
         inkscape:connector-curvature="0"
         sodipodi:nodetypes="ccccc" />
      <path
         d="m 121.94251,80.047962 q 0,2.36169 -1.74622,4.107909 -1.73191,1.731906 -4.17948,1.731906 -2.51913,0 -4.30829,-1.70328 -1.78916,-1.703279 -1.78916,-4.222414 0,-2.376003 1.76053,-4.093595 1.77485,-1.731906 4.23673,-1.731906 2.66227,0 4.36555,1.703279 1.66034,1.660339 1.66034,4.208101 z m -3.36362,-0.07157 q 0,-1.102122 -0.75861,-1.875038 -0.7586,-0.772917 -1.87503,-0.772917 -1.0735,0 -1.86073,0.772917 -0.77292,0.758603 -0.77292,1.817785 0,1.130748 0.75861,1.917978 0.77291,0.772917 1.86072,0.772917 1.10212,0 1.87504,-0.772917 0.77292,-0.772916 0.77292,-1.860725 z"
         style="font-style:normal;font-variant:normal;font-weight:100;font-stretch:normal;font-size:18.22079277px;font-family:Kabel;-inkscape-font-specification:'Kabel Thin';text-align:center;text-anchor:middle;fill:#378bbe;fill-opacity:1;stroke:none;stroke-width:1;stroke-linecap:round;stroke-miterlimit:4;stroke-dasharray:none;stroke-opacity:1"
         id="path5088"
         inkscape:connector-curvature="0" />
      <path
         d="m 133.16632,85.544258 -3.43518,0.286266 0,-6.469599 q 0,-0.143132 0,-0.243325 0,-0.74429 -0.14314,-1.159375 -0.24332,-0.715664 -0.90173,-0.715664 -0.0859,0 -0.37215,0.05725 -0.80154,0.214699 -1.04487,0.987615 -0.14313,0.458025 -0.14313,1.703279 l 0,5.553549 -3.43518,0.286266 0,-11.121411 3.22048,-0.386459 0,1.230942 q 0.28627,-0.329206 0.57253,-0.658411 0.80155,-0.644097 2.0468,-0.644097 1.54583,0 2.5907,1.030555 1.04487,1.030556 1.04487,2.576389 l 0,7.686226 z"
         style="font-style:normal;font-variant:normal;font-weight:100;font-stretch:normal;font-size:18.22079277px;font-family:Kabel;-inkscape-font-specification:'Kabel Thin';text-align:center;text-anchor:middle;fill:#378bbe;fill-opacity:1;stroke:none;stroke-width:1;stroke-linecap:round;stroke-miterlimit:4;stroke-dasharray:none;stroke-opacity:1"
         id="path5090"
         inkscape:connector-curvature="0" />
    </g>
    <path
       inkscape:connector-curvature="0"
       id="path5093"
       style="font-style:normal;font-variant:normal;font-weight:normal;font-stretch:normal;font-size:18.22079277px;line-height:125%;font-family:Kabel;-inkscape-font-specification:Kabel;letter-spacing:0px;word-spacing:0px;display:inline;fill:#378bbe;fill-opacity:1;stroke:none;stroke-width:1;stroke-linecap:round;stroke-linejoin:miter;stroke-miterlimit:4;stroke-dasharray:none;stroke-opacity:1"
       d="m 101.59108,1017.003 -19.146597,1.6416 -6.211653,-34.02565 -19.146595,38.50265 -18.708113,-38.80114 -6.650135,34.99564 -19.146596,-2.3131 20.53507,-80.28853 23.969774,49.99375 24.919765,-49.84454 19.58508,80.13932 z" />
    <path
       inkscape:connector-curvature="0"
       id="path5095"
       style="font-style:normal;font-variant:normal;font-weight:normal;font-stretch:normal;font-size:18.22079277px;line-height:125%;font-family:Kabel;-inkscape-font-specification:Kabel;letter-spacing:0px;word-spacing:0px;display:inline;fill:#378bbe;fill-opacity:1;stroke:none;stroke-width:1;stroke-linecap:round;stroke-linejoin:miter;stroke-miterlimit:4;stroke-dasharray:none;stroke-opacity:1"
       d="m 160.03629,960.21958 -34.20073,75.58762 -18.78121,-2.537 12.4964,-24.2507 -22.435054,-48.79992 17.758054,-4.02934 14.03106,33.35406 13.81184,-33.57791 17.31964,4.25319 z" />
    <g
       transform="translate(121.33928,912.59421)"
       style="display:inline"
       id="g4727">
      <path
         inkscape:connector-curvature="0"
         id="path4166"
         d="M 66.785714,5.4822834 62.321429,83.517998 105.71429,71.732283 Z"
         style="fill:#b3ff81;fill-opacity:1;fill-rule:evenodd;stroke:none;stroke-width:1px;stroke-linecap:butt;stroke-linejoin:miter;stroke-opacity:1" />
      <path
         inkscape:connector-curvature="0"
         id="path4168"
         d="M 62.678571,83.696569 33.035714,71.732283 66.785714,4.5894262 Z"
         style="fill:#44aa00;fill-opacity:1;fill-rule:evenodd;stroke:none;stroke-width:1px;stroke-linecap:butt;stroke-linejoin:miter;stroke-opacity:1" />
      <path
         sodipodi:nodetypes="cccc"
         inkscape:connector-curvature="0"
         id="path4170"
         d="M 62.857143,82.982283 70,134.23228 32.857143,71.375141 Z"
         style="fill:#378b00;fill-opacity:1;fill-rule:evenodd;stroke:none;stroke-width:1px;stroke-linecap:butt;stroke-linejoin:miter;stroke-opacity:1" />
      <path
         sodipodi:nodetypes="cccc"
         inkscape:connector-curvature="0"
         id="path4172"
         d="M 62.857143,83.339426 105.89286,71.910855 69.821429,134.23228 Z"
         style="fill:#44aa00;fill-opacity:1;fill-rule:evenodd;stroke:none;stroke-width:1px;stroke-linecap:butt;stroke-linejoin:miter;stroke-opacity:1" />
    </g>
  </g>
</svg>
