<?xml version="1.0" encoding="UTF-8" standalone="no"?>
<!-- Created with Inkscape (http://www.inkscape.org/) -->

<svg
   xmlns:dc="http://purl.org/dc/elements/1.1/"
   xmlns:cc="http://creativecommons.org/ns#"
   xmlns:rdf="http://www.w3.org/1999/02/22-rdf-syntax-ns#"
   xmlns:svg="http://www.w3.org/2000/svg"
   xmlns="http://www.w3.org/2000/svg"
   xmlns:xlink="http://www.w3.org/1999/xlink"
   xmlns:sodipodi="http://sodipodi.sourceforge.net/DTD/sodipodi-0.dtd"
   xmlns:inkscape="http://www.inkscape.org/namespaces/inkscape"
   width="40mm"
   height="40mm"
   viewBox="0 0 141.73228 141.73228"
   id="svg2"
   version="1.1"
   inkscape:version="0.91 r13725"
   sodipodi:docname="Serv Logo.svg"
   inkscape:export-filename="Serv Logo.png"
   inkscape:export-xdpi="317.5"
   inkscape:export-ydpi="317.5">
  <defs
     id="defs4">
    <linearGradient
       inkscape:collect="always"
       id="linearGradient6194-2-2">
      <stop
         style="stop-color:#b4cdea;stop-opacity:1"
         offset="0"
         id="stop6210" />
      <stop
         style="stop-color:#378bbe;stop-opacity:1"
         offset="1"
         id="stop6212" />
    </linearGradient>
    <radialGradient
       inkscape:collect="always"
       xlink:href="#linearGradient6194-2-2"
       id="radialGradient4161"
       cx="58.336311"
       cy="-74.945435"
       fx="58.336311"
       fy="-74.945435"
       r="91.666267"
       gradientTransform="matrix(0.82267272,0,0,0.82341097,23.008299,132.44325)"
       gradientUnits="userSpaceOnUse" />
  </defs>
  <sodipodi:namedview
     id="base"
     pagecolor="#ffffff"
     bordercolor="#666666"
     borderopacity="1.0"
     inkscape:pageopacity="0"
     inkscape:pageshadow="2"
     inkscape:zoom="3.959798"
     inkscape:cx="77.113109"
     inkscape:cy="56.82691"
     inkscape:document-units="px"
     inkscape:current-layer="layer2"
     showgrid="false"
     borderlayer="true"
     fit-margin-top="0"
     fit-margin-left="0"
     fit-margin-right="0"
     fit-margin-bottom="0"
     inkscape:window-width="1280"
     inkscape:window-height="790"
     inkscape:window-x="-8"
     inkscape:window-y="-8"
     inkscape:window-maximized="1" />
  <metadata
     id="metadata7">
    <rdf:RDF>
      <cc:Work
         rdf:about="">
        <dc:format>image/svg+xml</dc:format>
        <dc:type
           rdf:resource="http://purl.org/dc/dcmitype/StillImage" />
        <dc:title></dc:title>
        <cc:license
           rdf:resource="http://creativecommons.org/publicdomain/zero/1.0/" />
      </cc:Work>
      <cc:License
         rdf:about="http://creativecommons.org/publicdomain/zero/1.0/">
        <cc:permits
           rdf:resource="http://creativecommons.org/ns#Reproduction" />
        <cc:permits
           rdf:resource="http://creativecommons.org/ns#Distribution" />
        <cc:permits
           rdf:resource="http://creativecommons.org/ns#DerivativeWorks" />
      </cc:License>
    </rdf:RDF>
  </metadata>
  <g
     inkscape:groupmode="layer"
     id="layer3"
     inkscape:label="mat-dgn" />
  <g
     inkscape:groupmode="layer"
     id="layer4"
     inkscape:label="Layer 2"
     style="display:none">
    <rect
       style="display:inline;fill:url(#radialGradient4161);fill-opacity:1;stroke:none;stroke-opacity:1"
       id="rect4153"
       width="150"
       height="150"
       x="-4"
       y="-4.2677164" />
  </g>
  <g
     inkscape:label="Layer 1"
     inkscape:groupmode="layer"
     id="layer1"
     transform="translate(-99.999995,-412.09428)"
     style="display:inline"
     sodipodi:insensitive="true" />
  <g
     inkscape:groupmode="layer"
     id="layer2"
     inkscape:label="logo"
     style="display:inline">
    <g
       id="g4201"
       transform="matrix(1.3135348,0,0,1.2970595,-153.53021,-602.05968)">
      <path
         inkscape:connector-curvature="0"
         id="path4199"
         d="m 119.32465,526.86228 c -5.42222,34.60897 101.74676,30.34419 101.74676,3.39286 -19.84356,-7.83269 -42.56689,-7.13746 -63.91783,-8.21429 -6.06207,-0.30574 -12.72466,-1.79165 -18.82128,-0.89286 -6.16394,0.90872 -13.0194,4.27971 -19.00765,5.71429 z"
         style="fill:#0088aa;fill-rule:evenodd;stroke:none;stroke-width:1px;stroke-linecap:butt;stroke-linejoin:miter;stroke-opacity:1" />
      <g
         transform="translate(0,-6.0714285)"
         id="g4193">
        <path
           style="fill:#784421;fill-rule:evenodd;stroke:none;stroke-width:0.93978161px;stroke-linecap:butt;stroke-linejoin:miter;stroke-opacity:1"
           d="m 120.47252,528.99472 c 3.66306,-10.23904 10.45822,-21.54797 20.69393,-25.22034 22.01231,-7.89758 65.13579,-7.43925 68.83276,13.5747 0.96054,5.4598 7.89613,10.34194 9.14125,15.51864 5.35031,22.2444 -45.78045,-0.23778 -68.61712,-1.62533 -7.76241,-0.47164 -15.45073,-1.91156 -23.21894,-2.27545 -2.27482,-0.10656 -5.2183,1.63482 -6.83188,0.0278 z"
           id="path4191"
           inkscape:connector-curvature="0"
           sodipodi:nodetypes="aassaaaa" />
        <g
           id="g4187"
           transform="matrix(0.77385215,0,0,0.92170426,39.667876,43.256227)">
          <path
             sodipodi:nodetypes="aaaaaaaaaaaaaa"
             inkscape:connector-curvature="0"
             id="path4185"
             d="m 105.24121,532.39069 c -1.26369,2.1164 1.77986,5.13997 4.36617,6.08321 9.39654,3.42697 20.04973,-7.15599 30.06632,-5.3507 4.04749,0.72948 8.93441,2.80441 10.02189,6.15798 0.94665,2.91926 -5.78401,5.58308 -4.28327,8.33375 1.90125,3.48476 8.5449,2.91688 13.06655,3.44563 9.4302,1.10274 19.20318,0.85009 28.55286,-0.66054 6.37684,-1.03031 11.78962,-5.55178 18.28241,-5.64984 3.05836,-0.0462 5.67079,2.60153 8.72017,2.39954 7.10408,-0.47055 15.81794,-2.85049 19.01979,-8.19559 1.07343,-1.79196 0.61738,-4.60962 -1.17467,-5.9361 -16.0535,-11.88281 -42.80935,-0.81303 -64.15587,-2.10075 -7.29212,-0.4399 -14.50228,-1.90373 -21.81317,-1.92033 -13.62314,-0.0309 -34.56391,-6.83122 -40.66918,3.39374 z"
             style="fill:#decd87;fill-rule:evenodd;stroke:none;stroke-width:1px;stroke-linecap:butt;stroke-linejoin:miter;stroke-opacity:1" />
          <path
             sodipodi:nodetypes="aaaaaaaa"
             inkscape:connector-curvature="0"
             id="path4181"
             d="m 103.31143,532.23811 c -1.53207,-2.93972 1.24961,-7.1036 4.43455,-8.8773 29.27647,-16.30406 71.73976,-8.25689 105.39384,0.20657 8.21382,2.06564 23.6793,4.86353 21.52038,11.83055 -4.05943,13.10007 -32.16468,3.82723 -48.24648,2.86726 -14.33066,-0.85544 -27.77266,-7.1957 -42.1299,-7.6363 -11.22081,-0.34435 -22.1905,4.9182 -33.35743,3.93394 -2.68615,-0.23676 -6.53226,-0.24724 -7.61496,-2.32472 z"
             style="fill:#225500;fill-rule:evenodd;stroke:none;stroke-width:1px;stroke-linecap:butt;stroke-linejoin:miter;stroke-opacity:1" />
        </g>
      </g>
    </g>
    <g
       style="display:inline"
       id="g4727"
       transform="matrix(0.41283201,0,0,0.38735511,-4.7781296,39.593947)">
      <path
         inkscape:connector-curvature="0"
         id="path4166"
         d="M 66.785714,5.4822834 62.321429,83.517998 105.71429,71.732283 Z"
         style="fill:#b3ff81;fill-opacity:1;fill-rule:evenodd;stroke:none;stroke-width:1px;stroke-linecap:butt;stroke-linejoin:miter;stroke-opacity:1" />
      <path
         inkscape:connector-curvature="0"
         id="path4168"
         d="M 62.678571,83.696569 33.035714,71.732283 66.785714,4.5894262 Z"
         style="fill:#44aa00;fill-opacity:1;fill-rule:evenodd;stroke:none;stroke-width:1px;stroke-linecap:butt;stroke-linejoin:miter;stroke-opacity:1" />
      <path
         sodipodi:nodetypes="cccc"
         inkscape:connector-curvature="0"
         id="path4170"
         d="M 62.857143,82.982283 70,134.23228 32.857143,71.375141 Z"
         style="fill:#378b00;fill-opacity:1;fill-rule:evenodd;stroke:none;stroke-width:1px;stroke-linecap:butt;stroke-linejoin:miter;stroke-opacity:1" />
      <path
         sodipodi:nodetypes="cccc"
         inkscape:connector-curvature="0"
         id="path4172"
         d="M 62.857143,83.339426 105.89286,71.910855 69.821429,134.23228 Z"
         style="fill:#44aa00;fill-opacity:1;fill-rule:evenodd;stroke:none;stroke-width:1px;stroke-linecap:butt;stroke-linejoin:miter;stroke-opacity:1" />
    </g>
    <text
       xml:space="preserve"
       style="font-style:normal;font-weight:normal;font-size:46.34228516px;line-height:125%;font-family:sans-serif;letter-spacing:0px;word-spacing:0px;fill:#ffffff;fill-opacity:1;stroke:none;stroke-width:1px;stroke-linecap:butt;stroke-linejoin:miter;stroke-opacity:1"
       x="35.502708"
       y="85.655098"
       id="text4204"
       sodipodi:linespacing="125%"
       transform="scale(1.0446998,0.95721276)"><tspan
         sodipodi:role="line"
         id="tspan4206"
         x="35.502708"
         y="85.655098"
         style="font-style:normal;font-variant:normal;font-weight:100;font-stretch:normal;font-size:31.86032104px;font-family:Kabel;-inkscape-font-specification:'Kabel Thin';fill:#ffffff;fill-opacity:1">Serv</tspan></text>
  </g>
</svg>
